<mxfile host="app.diagrams.net" modified="2022-11-08T09:32:33.327Z" agent="5.0 (Windows NT 10.0; Win64; x64) AppleWebKit/537.36 (KHTML, like Gecko) Chrome/107.0.0.0 Safari/537.36" etag="cISG3GVxvZKvEIN3smgD" version="20.5.3" type="github">
  <diagram id="dY_4aWVO0XkQXRWpeF5l" name="Page-1">
    <mxGraphModel dx="1422" dy="798" grid="1" gridSize="10" guides="1" tooltips="1" connect="1" arrows="1" fold="1" page="1" pageScale="1" pageWidth="850" pageHeight="1100" math="0" shadow="0">
      <root>
        <mxCell id="0" />
        <mxCell id="1" parent="0" />
        <mxCell id="0aGzHAWhw8IwHbo-9U-T-1" value="Player" style="rounded=0;whiteSpace=wrap;html=1;" vertex="1" parent="1">
          <mxGeometry x="160" y="180" width="90" height="40" as="geometry" />
        </mxCell>
        <mxCell id="0aGzHAWhw8IwHbo-9U-T-2" value="Full name" style="ellipse;whiteSpace=wrap;html=1;" vertex="1" parent="1">
          <mxGeometry x="80" y="80" width="80" height="40" as="geometry" />
        </mxCell>
        <mxCell id="0aGzHAWhw8IwHbo-9U-T-3" value="" style="endArrow=none;html=1;rounded=0;exitX=0.5;exitY=1;exitDx=0;exitDy=0;entryX=0.5;entryY=0;entryDx=0;entryDy=0;" edge="1" parent="1" source="0aGzHAWhw8IwHbo-9U-T-2" target="0aGzHAWhw8IwHbo-9U-T-1">
          <mxGeometry width="50" height="50" relative="1" as="geometry">
            <mxPoint x="400" y="340" as="sourcePoint" />
            <mxPoint x="450" y="290" as="targetPoint" />
          </mxGeometry>
        </mxCell>
        <mxCell id="0aGzHAWhw8IwHbo-9U-T-4" value="Shirt Name" style="ellipse;whiteSpace=wrap;html=1;" vertex="1" parent="1">
          <mxGeometry x="170" y="80" width="80" height="40" as="geometry" />
        </mxCell>
        <mxCell id="0aGzHAWhw8IwHbo-9U-T-5" value="" style="endArrow=none;html=1;rounded=0;exitX=0.5;exitY=1;exitDx=0;exitDy=0;entryX=0.5;entryY=0;entryDx=0;entryDy=0;" edge="1" parent="1" source="0aGzHAWhw8IwHbo-9U-T-4" target="0aGzHAWhw8IwHbo-9U-T-1">
          <mxGeometry width="50" height="50" relative="1" as="geometry">
            <mxPoint x="490" y="340" as="sourcePoint" />
            <mxPoint x="295" y="180" as="targetPoint" />
          </mxGeometry>
        </mxCell>
        <mxCell id="0aGzHAWhw8IwHbo-9U-T-6" value="Shirt Number" style="ellipse;whiteSpace=wrap;html=1;" vertex="1" parent="1">
          <mxGeometry x="260" y="80" width="80" height="40" as="geometry" />
        </mxCell>
        <mxCell id="0aGzHAWhw8IwHbo-9U-T-7" value="" style="endArrow=none;html=1;rounded=0;exitX=0.5;exitY=1;exitDx=0;exitDy=0;entryX=0.5;entryY=0;entryDx=0;entryDy=0;" edge="1" parent="1" source="0aGzHAWhw8IwHbo-9U-T-6" target="0aGzHAWhw8IwHbo-9U-T-1">
          <mxGeometry width="50" height="50" relative="1" as="geometry">
            <mxPoint x="580" y="340" as="sourcePoint" />
            <mxPoint x="385" y="180" as="targetPoint" />
          </mxGeometry>
        </mxCell>
        <mxCell id="0aGzHAWhw8IwHbo-9U-T-8" value="Height" style="ellipse;whiteSpace=wrap;html=1;" vertex="1" parent="1">
          <mxGeometry x="20" y="130" width="80" height="40" as="geometry" />
        </mxCell>
        <mxCell id="0aGzHAWhw8IwHbo-9U-T-9" value="" style="endArrow=none;html=1;rounded=0;exitX=1;exitY=0.5;exitDx=0;exitDy=0;entryX=0.5;entryY=0;entryDx=0;entryDy=0;" edge="1" parent="1" source="0aGzHAWhw8IwHbo-9U-T-8" target="0aGzHAWhw8IwHbo-9U-T-1">
          <mxGeometry width="50" height="50" relative="1" as="geometry">
            <mxPoint x="340" y="390" as="sourcePoint" />
            <mxPoint x="145" y="230" as="targetPoint" />
          </mxGeometry>
        </mxCell>
        <mxCell id="0aGzHAWhw8IwHbo-9U-T-10" value="Weight" style="ellipse;whiteSpace=wrap;html=1;" vertex="1" parent="1">
          <mxGeometry x="20" y="190" width="80" height="40" as="geometry" />
        </mxCell>
        <mxCell id="0aGzHAWhw8IwHbo-9U-T-11" value="" style="endArrow=none;html=1;rounded=0;exitX=1;exitY=0.5;exitDx=0;exitDy=0;entryX=0;entryY=0.5;entryDx=0;entryDy=0;" edge="1" parent="1" source="0aGzHAWhw8IwHbo-9U-T-10" target="0aGzHAWhw8IwHbo-9U-T-1">
          <mxGeometry width="50" height="50" relative="1" as="geometry">
            <mxPoint x="340" y="450" as="sourcePoint" />
            <mxPoint x="145" y="290" as="targetPoint" />
          </mxGeometry>
        </mxCell>
        <mxCell id="0aGzHAWhw8IwHbo-9U-T-14" value="Position" style="ellipse;whiteSpace=wrap;html=1;" vertex="1" parent="1">
          <mxGeometry x="20" y="240" width="80" height="40" as="geometry" />
        </mxCell>
        <mxCell id="0aGzHAWhw8IwHbo-9U-T-15" value="" style="endArrow=none;html=1;rounded=0;exitX=1;exitY=0;exitDx=0;exitDy=0;entryX=0;entryY=0.5;entryDx=0;entryDy=0;" edge="1" parent="1" source="0aGzHAWhw8IwHbo-9U-T-14" target="0aGzHAWhw8IwHbo-9U-T-1">
          <mxGeometry width="50" height="50" relative="1" as="geometry">
            <mxPoint x="340" y="500" as="sourcePoint" />
            <mxPoint x="145" y="340" as="targetPoint" />
          </mxGeometry>
        </mxCell>
        <mxCell id="0aGzHAWhw8IwHbo-9U-T-16" value="Birthday" style="ellipse;whiteSpace=wrap;html=1;" vertex="1" parent="1">
          <mxGeometry x="320" y="120" width="80" height="40" as="geometry" />
        </mxCell>
        <mxCell id="0aGzHAWhw8IwHbo-9U-T-17" value="" style="endArrow=none;html=1;rounded=0;exitX=0.5;exitY=1;exitDx=0;exitDy=0;entryX=0.5;entryY=0;entryDx=0;entryDy=0;" edge="1" parent="1" source="0aGzHAWhw8IwHbo-9U-T-16" target="0aGzHAWhw8IwHbo-9U-T-1">
          <mxGeometry width="50" height="50" relative="1" as="geometry">
            <mxPoint x="640" y="380" as="sourcePoint" />
            <mxPoint x="445" y="220" as="targetPoint" />
          </mxGeometry>
        </mxCell>
        <mxCell id="0aGzHAWhw8IwHbo-9U-T-18" value="Nationality" style="ellipse;whiteSpace=wrap;html=1;" vertex="1" parent="1">
          <mxGeometry x="57.5" y="290" width="80" height="40" as="geometry" />
        </mxCell>
        <mxCell id="0aGzHAWhw8IwHbo-9U-T-19" value="" style="endArrow=none;html=1;rounded=0;exitX=0.5;exitY=0;exitDx=0;exitDy=0;entryX=0;entryY=1;entryDx=0;entryDy=0;" edge="1" parent="1" source="0aGzHAWhw8IwHbo-9U-T-18" target="0aGzHAWhw8IwHbo-9U-T-1">
          <mxGeometry width="50" height="50" relative="1" as="geometry">
            <mxPoint x="377.5" y="550" as="sourcePoint" />
            <mxPoint x="182.5" y="390" as="targetPoint" />
          </mxGeometry>
        </mxCell>
        <mxCell id="0aGzHAWhw8IwHbo-9U-T-21" value="Image" style="ellipse;whiteSpace=wrap;html=1;" vertex="1" parent="1">
          <mxGeometry x="385" y="150" width="80" height="40" as="geometry" />
        </mxCell>
        <mxCell id="0aGzHAWhw8IwHbo-9U-T-22" value="" style="endArrow=none;html=1;rounded=0;exitX=0;exitY=0.5;exitDx=0;exitDy=0;" edge="1" parent="1" source="0aGzHAWhw8IwHbo-9U-T-21">
          <mxGeometry width="50" height="50" relative="1" as="geometry">
            <mxPoint x="462.5" y="550" as="sourcePoint" />
            <mxPoint x="205" y="180" as="targetPoint" />
          </mxGeometry>
        </mxCell>
        <mxCell id="0aGzHAWhw8IwHbo-9U-T-23" value="ID_Attribute" style="rhombus;whiteSpace=wrap;html=1;" vertex="1" parent="1">
          <mxGeometry x="165" y="310" width="80" height="80" as="geometry" />
        </mxCell>
        <mxCell id="0aGzHAWhw8IwHbo-9U-T-24" value="" style="endArrow=none;html=1;rounded=0;exitX=0.5;exitY=0;exitDx=0;exitDy=0;entryX=0.5;entryY=1;entryDx=0;entryDy=0;" edge="1" parent="1" source="0aGzHAWhw8IwHbo-9U-T-23" target="0aGzHAWhw8IwHbo-9U-T-1">
          <mxGeometry width="50" height="50" relative="1" as="geometry">
            <mxPoint x="400" y="340" as="sourcePoint" />
            <mxPoint x="450" y="290" as="targetPoint" />
          </mxGeometry>
        </mxCell>
        <mxCell id="0aGzHAWhw8IwHbo-9U-T-25" value="Player" style="rounded=0;whiteSpace=wrap;html=1;" vertex="1" parent="1">
          <mxGeometry x="590" y="200" width="90" height="40" as="geometry" />
        </mxCell>
        <mxCell id="0aGzHAWhw8IwHbo-9U-T-26" value="Name" style="ellipse;whiteSpace=wrap;html=1;" vertex="1" parent="1">
          <mxGeometry x="540" y="100" width="80" height="40" as="geometry" />
        </mxCell>
        <mxCell id="0aGzHAWhw8IwHbo-9U-T-27" value="" style="endArrow=none;html=1;rounded=0;exitX=0.5;exitY=1;exitDx=0;exitDy=0;entryX=0.5;entryY=0;entryDx=0;entryDy=0;" edge="1" parent="1" source="0aGzHAWhw8IwHbo-9U-T-26" target="0aGzHAWhw8IwHbo-9U-T-25">
          <mxGeometry width="50" height="50" relative="1" as="geometry">
            <mxPoint x="880" y="360" as="sourcePoint" />
            <mxPoint x="930" y="310" as="targetPoint" />
          </mxGeometry>
        </mxCell>
        <mxCell id="0aGzHAWhw8IwHbo-9U-T-28" value="Nationality" style="ellipse;whiteSpace=wrap;html=1;" vertex="1" parent="1">
          <mxGeometry x="630" y="100" width="80" height="40" as="geometry" />
        </mxCell>
        <mxCell id="0aGzHAWhw8IwHbo-9U-T-29" value="" style="endArrow=none;html=1;rounded=0;exitX=0.5;exitY=1;exitDx=0;exitDy=0;entryX=0.5;entryY=0;entryDx=0;entryDy=0;" edge="1" parent="1" source="0aGzHAWhw8IwHbo-9U-T-28" target="0aGzHAWhw8IwHbo-9U-T-25">
          <mxGeometry width="50" height="50" relative="1" as="geometry">
            <mxPoint x="970" y="360" as="sourcePoint" />
            <mxPoint x="775" y="200" as="targetPoint" />
          </mxGeometry>
        </mxCell>
        <mxCell id="0aGzHAWhw8IwHbo-9U-T-30" value="Logo" style="ellipse;whiteSpace=wrap;html=1;" vertex="1" parent="1">
          <mxGeometry x="720" y="100" width="80" height="40" as="geometry" />
        </mxCell>
        <mxCell id="0aGzHAWhw8IwHbo-9U-T-31" value="" style="endArrow=none;html=1;rounded=0;exitX=0.5;exitY=1;exitDx=0;exitDy=0;entryX=0.5;entryY=0;entryDx=0;entryDy=0;" edge="1" parent="1" source="0aGzHAWhw8IwHbo-9U-T-30" target="0aGzHAWhw8IwHbo-9U-T-25">
          <mxGeometry width="50" height="50" relative="1" as="geometry">
            <mxPoint x="1060" y="360" as="sourcePoint" />
            <mxPoint x="865" y="200" as="targetPoint" />
          </mxGeometry>
        </mxCell>
        <mxCell id="0aGzHAWhw8IwHbo-9U-T-35" value="Owner" style="ellipse;whiteSpace=wrap;html=1;" vertex="1" parent="1">
          <mxGeometry x="790" y="130" width="80" height="40" as="geometry" />
        </mxCell>
        <mxCell id="0aGzHAWhw8IwHbo-9U-T-36" value="" style="endArrow=none;html=1;rounded=0;exitX=0.5;exitY=1;exitDx=0;exitDy=0;entryX=0.5;entryY=0;entryDx=0;entryDy=0;" edge="1" parent="1" source="0aGzHAWhw8IwHbo-9U-T-35" target="0aGzHAWhw8IwHbo-9U-T-25">
          <mxGeometry width="50" height="50" relative="1" as="geometry">
            <mxPoint x="1120" y="400" as="sourcePoint" />
            <mxPoint x="925" y="240" as="targetPoint" />
          </mxGeometry>
        </mxCell>
        <mxCell id="0aGzHAWhw8IwHbo-9U-T-40" value="" style="endArrow=none;html=1;rounded=0;exitX=0.5;exitY=0;exitDx=0;exitDy=0;entryX=0.5;entryY=1;entryDx=0;entryDy=0;" edge="1" parent="1" target="0aGzHAWhw8IwHbo-9U-T-25" source="0aGzHAWhw8IwHbo-9U-T-41">
          <mxGeometry width="50" height="50" relative="1" as="geometry">
            <mxPoint x="685" y="330" as="sourcePoint" />
            <mxPoint x="930" y="310" as="targetPoint" />
          </mxGeometry>
        </mxCell>
        <mxCell id="0aGzHAWhw8IwHbo-9U-T-41" value="ID_Owner" style="rhombus;whiteSpace=wrap;html=1;" vertex="1" parent="1">
          <mxGeometry x="595" y="280" width="80" height="80" as="geometry" />
        </mxCell>
        <mxCell id="0aGzHAWhw8IwHbo-9U-T-42" value="ID_Manager" style="rhombus;whiteSpace=wrap;html=1;" vertex="1" parent="1">
          <mxGeometry x="490" y="280" width="80" height="80" as="geometry" />
        </mxCell>
        <mxCell id="0aGzHAWhw8IwHbo-9U-T-43" value="" style="endArrow=none;html=1;rounded=0;exitX=0.5;exitY=0;exitDx=0;exitDy=0;entryX=0.5;entryY=1;entryDx=0;entryDy=0;" edge="1" parent="1" source="0aGzHAWhw8IwHbo-9U-T-42" target="0aGzHAWhw8IwHbo-9U-T-25">
          <mxGeometry width="50" height="50" relative="1" as="geometry">
            <mxPoint x="645" y="290" as="sourcePoint" />
            <mxPoint x="645" y="250" as="targetPoint" />
          </mxGeometry>
        </mxCell>
        <mxCell id="0aGzHAWhw8IwHbo-9U-T-45" value="" style="endArrow=none;html=1;rounded=0;exitX=0.5;exitY=0;exitDx=0;exitDy=0;entryX=0.5;entryY=1;entryDx=0;entryDy=0;" edge="1" parent="1" source="0aGzHAWhw8IwHbo-9U-T-46" target="0aGzHAWhw8IwHbo-9U-T-25">
          <mxGeometry width="50" height="50" relative="1" as="geometry">
            <mxPoint x="790" y="330" as="sourcePoint" />
            <mxPoint x="740" y="240" as="targetPoint" />
          </mxGeometry>
        </mxCell>
        <mxCell id="0aGzHAWhw8IwHbo-9U-T-46" value="ID_Sponsor" style="rhombus;whiteSpace=wrap;html=1;" vertex="1" parent="1">
          <mxGeometry x="700" y="280" width="80" height="80" as="geometry" />
        </mxCell>
        <mxCell id="0aGzHAWhw8IwHbo-9U-T-47" value="League" style="rounded=0;whiteSpace=wrap;html=1;" vertex="1" parent="1">
          <mxGeometry x="220" y="400" width="90" height="40" as="geometry" />
        </mxCell>
        <mxCell id="0aGzHAWhw8IwHbo-9U-T-48" value="Name" style="ellipse;whiteSpace=wrap;html=1;" vertex="1" parent="1">
          <mxGeometry x="50" y="470" width="80" height="40" as="geometry" />
        </mxCell>
        <mxCell id="0aGzHAWhw8IwHbo-9U-T-49" value="" style="endArrow=none;html=1;rounded=0;entryX=0;entryY=0.5;entryDx=0;entryDy=0;" edge="1" parent="1" source="0aGzHAWhw8IwHbo-9U-T-48" target="0aGzHAWhw8IwHbo-9U-T-47">
          <mxGeometry width="50" height="50" relative="1" as="geometry">
            <mxPoint x="370" y="730" as="sourcePoint" />
            <mxPoint x="420" y="680" as="targetPoint" />
          </mxGeometry>
        </mxCell>
        <mxCell id="0aGzHAWhw8IwHbo-9U-T-50" value="Region" style="ellipse;whiteSpace=wrap;html=1;" vertex="1" parent="1">
          <mxGeometry x="90" y="520" width="80" height="40" as="geometry" />
        </mxCell>
        <mxCell id="0aGzHAWhw8IwHbo-9U-T-51" value="" style="endArrow=none;html=1;rounded=0;exitX=0.5;exitY=0;exitDx=0;exitDy=0;entryX=0.25;entryY=1;entryDx=0;entryDy=0;" edge="1" parent="1" source="0aGzHAWhw8IwHbo-9U-T-50" target="0aGzHAWhw8IwHbo-9U-T-47">
          <mxGeometry width="50" height="50" relative="1" as="geometry">
            <mxPoint x="460" y="730" as="sourcePoint" />
            <mxPoint x="265" y="570" as="targetPoint" />
          </mxGeometry>
        </mxCell>
        <mxCell id="0aGzHAWhw8IwHbo-9U-T-52" value="Federation" style="ellipse;whiteSpace=wrap;html=1;" vertex="1" parent="1">
          <mxGeometry x="180" y="520" width="80" height="40" as="geometry" />
        </mxCell>
        <mxCell id="0aGzHAWhw8IwHbo-9U-T-53" value="" style="endArrow=none;html=1;rounded=0;exitX=0.5;exitY=0;exitDx=0;exitDy=0;entryX=0.4;entryY=0.975;entryDx=0;entryDy=0;entryPerimeter=0;" edge="1" parent="1" source="0aGzHAWhw8IwHbo-9U-T-52" target="0aGzHAWhw8IwHbo-9U-T-47">
          <mxGeometry width="50" height="50" relative="1" as="geometry">
            <mxPoint x="550" y="730" as="sourcePoint" />
            <mxPoint x="355" y="570" as="targetPoint" />
          </mxGeometry>
        </mxCell>
        <mxCell id="0aGzHAWhw8IwHbo-9U-T-57" value="Nationality" style="ellipse;whiteSpace=wrap;html=1;" vertex="1" parent="1">
          <mxGeometry x="270" y="530" width="80" height="40" as="geometry" />
        </mxCell>
        <mxCell id="0aGzHAWhw8IwHbo-9U-T-58" value="" style="endArrow=none;html=1;rounded=0;exitX=0.388;exitY=0.025;exitDx=0;exitDy=0;entryX=0.5;entryY=1;entryDx=0;entryDy=0;exitPerimeter=0;" edge="1" parent="1" source="0aGzHAWhw8IwHbo-9U-T-57" target="0aGzHAWhw8IwHbo-9U-T-47">
          <mxGeometry width="50" height="50" relative="1" as="geometry">
            <mxPoint x="610" y="770" as="sourcePoint" />
            <mxPoint x="415" y="610" as="targetPoint" />
          </mxGeometry>
        </mxCell>
        <mxCell id="0aGzHAWhw8IwHbo-9U-T-59" value="Prize" style="ellipse;whiteSpace=wrap;html=1;" vertex="1" parent="1">
          <mxGeometry x="360" y="530" width="80" height="40" as="geometry" />
        </mxCell>
        <mxCell id="0aGzHAWhw8IwHbo-9U-T-61" value="" style="endArrow=none;html=1;rounded=0;exitX=0.5;exitY=0;exitDx=0;exitDy=0;entryX=1;entryY=0.5;entryDx=0;entryDy=0;" edge="1" parent="1" source="0aGzHAWhw8IwHbo-9U-T-59" target="0aGzHAWhw8IwHbo-9U-T-47">
          <mxGeometry width="50" height="50" relative="1" as="geometry">
            <mxPoint x="340" y="560" as="sourcePoint" />
            <mxPoint x="185" y="580" as="targetPoint" />
          </mxGeometry>
        </mxCell>
        <mxCell id="0aGzHAWhw8IwHbo-9U-T-65" value="Match" style="rounded=0;whiteSpace=wrap;html=1;" vertex="1" parent="1">
          <mxGeometry x="670" y="420" width="90" height="40" as="geometry" />
        </mxCell>
        <mxCell id="0aGzHAWhw8IwHbo-9U-T-66" value="Time" style="ellipse;whiteSpace=wrap;html=1;" vertex="1" parent="1">
          <mxGeometry x="500" y="490" width="80" height="40" as="geometry" />
        </mxCell>
        <mxCell id="0aGzHAWhw8IwHbo-9U-T-67" value="" style="endArrow=none;html=1;rounded=0;entryX=0;entryY=0.5;entryDx=0;entryDy=0;" edge="1" parent="1" source="0aGzHAWhw8IwHbo-9U-T-66" target="0aGzHAWhw8IwHbo-9U-T-65">
          <mxGeometry width="50" height="50" relative="1" as="geometry">
            <mxPoint x="820" y="750" as="sourcePoint" />
            <mxPoint x="870" y="700" as="targetPoint" />
          </mxGeometry>
        </mxCell>
        <mxCell id="0aGzHAWhw8IwHbo-9U-T-68" value="Name" style="ellipse;whiteSpace=wrap;html=1;" vertex="1" parent="1">
          <mxGeometry x="540" y="540" width="80" height="40" as="geometry" />
        </mxCell>
        <mxCell id="0aGzHAWhw8IwHbo-9U-T-69" value="" style="endArrow=none;html=1;rounded=0;exitX=0.5;exitY=0;exitDx=0;exitDy=0;entryX=0.25;entryY=1;entryDx=0;entryDy=0;" edge="1" parent="1" source="0aGzHAWhw8IwHbo-9U-T-68" target="0aGzHAWhw8IwHbo-9U-T-65">
          <mxGeometry width="50" height="50" relative="1" as="geometry">
            <mxPoint x="910" y="750" as="sourcePoint" />
            <mxPoint x="715" y="590" as="targetPoint" />
          </mxGeometry>
        </mxCell>
        <mxCell id="0aGzHAWhw8IwHbo-9U-T-70" value="Federation" style="ellipse;whiteSpace=wrap;html=1;" vertex="1" parent="1">
          <mxGeometry x="630" y="540" width="80" height="40" as="geometry" />
        </mxCell>
        <mxCell id="0aGzHAWhw8IwHbo-9U-T-71" value="" style="endArrow=none;html=1;rounded=0;exitX=0.5;exitY=0;exitDx=0;exitDy=0;entryX=0.4;entryY=0.975;entryDx=0;entryDy=0;entryPerimeter=0;" edge="1" parent="1" source="0aGzHAWhw8IwHbo-9U-T-70" target="0aGzHAWhw8IwHbo-9U-T-65">
          <mxGeometry width="50" height="50" relative="1" as="geometry">
            <mxPoint x="1000" y="750" as="sourcePoint" />
            <mxPoint x="805" y="590" as="targetPoint" />
          </mxGeometry>
        </mxCell>
        <mxCell id="0aGzHAWhw8IwHbo-9U-T-72" value="Nationality" style="ellipse;whiteSpace=wrap;html=1;" vertex="1" parent="1">
          <mxGeometry x="720" y="550" width="80" height="40" as="geometry" />
        </mxCell>
        <mxCell id="0aGzHAWhw8IwHbo-9U-T-73" value="" style="endArrow=none;html=1;rounded=0;exitX=0.388;exitY=0.025;exitDx=0;exitDy=0;entryX=0.5;entryY=1;entryDx=0;entryDy=0;exitPerimeter=0;" edge="1" parent="1" source="0aGzHAWhw8IwHbo-9U-T-72" target="0aGzHAWhw8IwHbo-9U-T-65">
          <mxGeometry width="50" height="50" relative="1" as="geometry">
            <mxPoint x="1060" y="790" as="sourcePoint" />
            <mxPoint x="865" y="630" as="targetPoint" />
          </mxGeometry>
        </mxCell>
        <mxCell id="0aGzHAWhw8IwHbo-9U-T-74" value="Prize" style="ellipse;whiteSpace=wrap;html=1;" vertex="1" parent="1">
          <mxGeometry x="810" y="550" width="80" height="40" as="geometry" />
        </mxCell>
        <mxCell id="0aGzHAWhw8IwHbo-9U-T-75" value="" style="endArrow=none;html=1;rounded=0;exitX=0.5;exitY=0;exitDx=0;exitDy=0;entryX=1;entryY=0.5;entryDx=0;entryDy=0;" edge="1" parent="1" source="0aGzHAWhw8IwHbo-9U-T-74" target="0aGzHAWhw8IwHbo-9U-T-65">
          <mxGeometry width="50" height="50" relative="1" as="geometry">
            <mxPoint x="790" y="580" as="sourcePoint" />
            <mxPoint x="635" y="600" as="targetPoint" />
          </mxGeometry>
        </mxCell>
        <mxCell id="0aGzHAWhw8IwHbo-9U-T-76" value="Stadium" style="rounded=0;whiteSpace=wrap;html=1;" vertex="1" parent="1">
          <mxGeometry x="1060" y="425" width="90" height="40" as="geometry" />
        </mxCell>
        <mxCell id="0aGzHAWhw8IwHbo-9U-T-77" value="Name" style="ellipse;whiteSpace=wrap;html=1;" vertex="1" parent="1">
          <mxGeometry x="890" y="495" width="80" height="40" as="geometry" />
        </mxCell>
        <mxCell id="0aGzHAWhw8IwHbo-9U-T-78" value="" style="endArrow=none;html=1;rounded=0;entryX=0;entryY=0.5;entryDx=0;entryDy=0;" edge="1" parent="1" source="0aGzHAWhw8IwHbo-9U-T-77" target="0aGzHAWhw8IwHbo-9U-T-76">
          <mxGeometry width="50" height="50" relative="1" as="geometry">
            <mxPoint x="1210" y="755" as="sourcePoint" />
            <mxPoint x="1260" y="705" as="targetPoint" />
          </mxGeometry>
        </mxCell>
        <mxCell id="0aGzHAWhw8IwHbo-9U-T-79" value="Coordinate" style="ellipse;whiteSpace=wrap;html=1;" vertex="1" parent="1">
          <mxGeometry x="930" y="545" width="80" height="40" as="geometry" />
        </mxCell>
        <mxCell id="0aGzHAWhw8IwHbo-9U-T-80" value="" style="endArrow=none;html=1;rounded=0;exitX=0.5;exitY=0;exitDx=0;exitDy=0;entryX=0.25;entryY=1;entryDx=0;entryDy=0;" edge="1" parent="1" source="0aGzHAWhw8IwHbo-9U-T-79" target="0aGzHAWhw8IwHbo-9U-T-76">
          <mxGeometry width="50" height="50" relative="1" as="geometry">
            <mxPoint x="1300" y="755" as="sourcePoint" />
            <mxPoint x="1105" y="595" as="targetPoint" />
          </mxGeometry>
        </mxCell>
        <mxCell id="0aGzHAWhw8IwHbo-9U-T-81" value="Capacity" style="ellipse;whiteSpace=wrap;html=1;" vertex="1" parent="1">
          <mxGeometry x="1020" y="545" width="80" height="40" as="geometry" />
        </mxCell>
        <mxCell id="0aGzHAWhw8IwHbo-9U-T-82" value="" style="endArrow=none;html=1;rounded=0;exitX=0.5;exitY=0;exitDx=0;exitDy=0;entryX=0.4;entryY=0.975;entryDx=0;entryDy=0;entryPerimeter=0;" edge="1" parent="1" source="0aGzHAWhw8IwHbo-9U-T-81" target="0aGzHAWhw8IwHbo-9U-T-76">
          <mxGeometry width="50" height="50" relative="1" as="geometry">
            <mxPoint x="1390" y="755" as="sourcePoint" />
            <mxPoint x="1195" y="595" as="targetPoint" />
          </mxGeometry>
        </mxCell>
        <mxCell id="0aGzHAWhw8IwHbo-9U-T-83" value="Built time" style="ellipse;whiteSpace=wrap;html=1;" vertex="1" parent="1">
          <mxGeometry x="1110" y="555" width="80" height="40" as="geometry" />
        </mxCell>
        <mxCell id="0aGzHAWhw8IwHbo-9U-T-84" value="" style="endArrow=none;html=1;rounded=0;exitX=0.388;exitY=0.025;exitDx=0;exitDy=0;entryX=0.5;entryY=1;entryDx=0;entryDy=0;exitPerimeter=0;" edge="1" parent="1" source="0aGzHAWhw8IwHbo-9U-T-83" target="0aGzHAWhw8IwHbo-9U-T-76">
          <mxGeometry width="50" height="50" relative="1" as="geometry">
            <mxPoint x="1450" y="795" as="sourcePoint" />
            <mxPoint x="1255" y="635" as="targetPoint" />
          </mxGeometry>
        </mxCell>
        <mxCell id="0aGzHAWhw8IwHbo-9U-T-86" value="" style="endArrow=none;html=1;rounded=0;entryX=0.5;entryY=0;entryDx=0;entryDy=0;exitX=0.5;exitY=1;exitDx=0;exitDy=0;" edge="1" parent="1" source="0aGzHAWhw8IwHbo-9U-T-127" target="0aGzHAWhw8IwHbo-9U-T-76">
          <mxGeometry width="50" height="50" relative="1" as="geometry">
            <mxPoint x="1100" y="390" as="sourcePoint" />
            <mxPoint x="1025" y="605" as="targetPoint" />
          </mxGeometry>
        </mxCell>
        <mxCell id="0aGzHAWhw8IwHbo-9U-T-87" value="Goal" style="rounded=0;whiteSpace=wrap;html=1;" vertex="1" parent="1">
          <mxGeometry x="970" y="220" width="90" height="40" as="geometry" />
        </mxCell>
        <mxCell id="0aGzHAWhw8IwHbo-9U-T-88" value="Time" style="ellipse;whiteSpace=wrap;html=1;" vertex="1" parent="1">
          <mxGeometry x="920" y="120" width="80" height="40" as="geometry" />
        </mxCell>
        <mxCell id="0aGzHAWhw8IwHbo-9U-T-89" value="" style="endArrow=none;html=1;rounded=0;exitX=0.5;exitY=1;exitDx=0;exitDy=0;entryX=0.5;entryY=0;entryDx=0;entryDy=0;" edge="1" parent="1" source="0aGzHAWhw8IwHbo-9U-T-88" target="0aGzHAWhw8IwHbo-9U-T-87">
          <mxGeometry width="50" height="50" relative="1" as="geometry">
            <mxPoint x="1260" y="380" as="sourcePoint" />
            <mxPoint x="1310" y="330" as="targetPoint" />
          </mxGeometry>
        </mxCell>
        <mxCell id="0aGzHAWhw8IwHbo-9U-T-90" value="Video" style="ellipse;whiteSpace=wrap;html=1;" vertex="1" parent="1">
          <mxGeometry x="1010" y="120" width="80" height="40" as="geometry" />
        </mxCell>
        <mxCell id="0aGzHAWhw8IwHbo-9U-T-91" value="" style="endArrow=none;html=1;rounded=0;exitX=0.5;exitY=1;exitDx=0;exitDy=0;entryX=0.5;entryY=0;entryDx=0;entryDy=0;" edge="1" parent="1" source="0aGzHAWhw8IwHbo-9U-T-90" target="0aGzHAWhw8IwHbo-9U-T-87">
          <mxGeometry width="50" height="50" relative="1" as="geometry">
            <mxPoint x="1350" y="380" as="sourcePoint" />
            <mxPoint x="1155" y="220" as="targetPoint" />
          </mxGeometry>
        </mxCell>
        <mxCell id="0aGzHAWhw8IwHbo-9U-T-92" value="Rating" style="ellipse;whiteSpace=wrap;html=1;" vertex="1" parent="1">
          <mxGeometry x="1100" y="120" width="80" height="40" as="geometry" />
        </mxCell>
        <mxCell id="0aGzHAWhw8IwHbo-9U-T-93" value="" style="endArrow=none;html=1;rounded=0;exitX=0.5;exitY=1;exitDx=0;exitDy=0;entryX=0.5;entryY=0;entryDx=0;entryDy=0;" edge="1" parent="1" source="0aGzHAWhw8IwHbo-9U-T-92" target="0aGzHAWhw8IwHbo-9U-T-87">
          <mxGeometry width="50" height="50" relative="1" as="geometry">
            <mxPoint x="1440" y="380" as="sourcePoint" />
            <mxPoint x="1245" y="220" as="targetPoint" />
          </mxGeometry>
        </mxCell>
        <mxCell id="0aGzHAWhw8IwHbo-9U-T-96" value="" style="endArrow=none;html=1;rounded=0;exitX=0.5;exitY=0;exitDx=0;exitDy=0;entryX=0;entryY=0.5;entryDx=0;entryDy=0;" edge="1" parent="1" source="0aGzHAWhw8IwHbo-9U-T-97" target="0aGzHAWhw8IwHbo-9U-T-87">
          <mxGeometry width="50" height="50" relative="1" as="geometry">
            <mxPoint x="980" y="340" as="sourcePoint" />
            <mxPoint x="825" y="250" as="targetPoint" />
          </mxGeometry>
        </mxCell>
        <mxCell id="0aGzHAWhw8IwHbo-9U-T-97" value="ID_Player" style="rhombus;whiteSpace=wrap;html=1;" vertex="1" parent="1">
          <mxGeometry x="890" y="290" width="80" height="80" as="geometry" />
        </mxCell>
        <mxCell id="0aGzHAWhw8IwHbo-9U-T-98" value="Referee" style="rounded=0;whiteSpace=wrap;html=1;" vertex="1" parent="1">
          <mxGeometry x="1290" y="220" width="90" height="40" as="geometry" />
        </mxCell>
        <mxCell id="0aGzHAWhw8IwHbo-9U-T-99" value="Name" style="ellipse;whiteSpace=wrap;html=1;" vertex="1" parent="1">
          <mxGeometry x="1240" y="120" width="80" height="40" as="geometry" />
        </mxCell>
        <mxCell id="0aGzHAWhw8IwHbo-9U-T-100" value="" style="endArrow=none;html=1;rounded=0;exitX=0.5;exitY=1;exitDx=0;exitDy=0;entryX=0.5;entryY=0;entryDx=0;entryDy=0;" edge="1" parent="1" source="0aGzHAWhw8IwHbo-9U-T-99" target="0aGzHAWhw8IwHbo-9U-T-98">
          <mxGeometry width="50" height="50" relative="1" as="geometry">
            <mxPoint x="1580" y="380" as="sourcePoint" />
            <mxPoint x="1630" y="330" as="targetPoint" />
          </mxGeometry>
        </mxCell>
        <mxCell id="0aGzHAWhw8IwHbo-9U-T-101" value="Date of birth" style="ellipse;whiteSpace=wrap;html=1;" vertex="1" parent="1">
          <mxGeometry x="1330" y="120" width="80" height="40" as="geometry" />
        </mxCell>
        <mxCell id="0aGzHAWhw8IwHbo-9U-T-102" value="" style="endArrow=none;html=1;rounded=0;exitX=0.5;exitY=1;exitDx=0;exitDy=0;entryX=0.5;entryY=0;entryDx=0;entryDy=0;" edge="1" parent="1" source="0aGzHAWhw8IwHbo-9U-T-101" target="0aGzHAWhw8IwHbo-9U-T-98">
          <mxGeometry width="50" height="50" relative="1" as="geometry">
            <mxPoint x="1670" y="380" as="sourcePoint" />
            <mxPoint x="1475" y="220" as="targetPoint" />
          </mxGeometry>
        </mxCell>
        <mxCell id="0aGzHAWhw8IwHbo-9U-T-103" value="Nationality" style="ellipse;whiteSpace=wrap;html=1;" vertex="1" parent="1">
          <mxGeometry x="1420" y="120" width="80" height="40" as="geometry" />
        </mxCell>
        <mxCell id="0aGzHAWhw8IwHbo-9U-T-104" value="" style="endArrow=none;html=1;rounded=0;exitX=0.5;exitY=1;exitDx=0;exitDy=0;entryX=0.5;entryY=0;entryDx=0;entryDy=0;" edge="1" parent="1" source="0aGzHAWhw8IwHbo-9U-T-103" target="0aGzHAWhw8IwHbo-9U-T-98">
          <mxGeometry width="50" height="50" relative="1" as="geometry">
            <mxPoint x="1760" y="380" as="sourcePoint" />
            <mxPoint x="1565" y="220" as="targetPoint" />
          </mxGeometry>
        </mxCell>
        <mxCell id="0aGzHAWhw8IwHbo-9U-T-113" value="Manager" style="rounded=0;whiteSpace=wrap;html=1;" vertex="1" parent="1">
          <mxGeometry x="1445" y="430" width="90" height="40" as="geometry" />
        </mxCell>
        <mxCell id="0aGzHAWhw8IwHbo-9U-T-114" value="Full name" style="ellipse;whiteSpace=wrap;html=1;" vertex="1" parent="1">
          <mxGeometry x="1275" y="500" width="80" height="40" as="geometry" />
        </mxCell>
        <mxCell id="0aGzHAWhw8IwHbo-9U-T-115" value="" style="endArrow=none;html=1;rounded=0;entryX=0;entryY=0.5;entryDx=0;entryDy=0;" edge="1" parent="1" source="0aGzHAWhw8IwHbo-9U-T-114" target="0aGzHAWhw8IwHbo-9U-T-113">
          <mxGeometry width="50" height="50" relative="1" as="geometry">
            <mxPoint x="1595" y="760" as="sourcePoint" />
            <mxPoint x="1645" y="710" as="targetPoint" />
          </mxGeometry>
        </mxCell>
        <mxCell id="0aGzHAWhw8IwHbo-9U-T-116" value="Date of birth" style="ellipse;whiteSpace=wrap;html=1;" vertex="1" parent="1">
          <mxGeometry x="1315" y="550" width="80" height="40" as="geometry" />
        </mxCell>
        <mxCell id="0aGzHAWhw8IwHbo-9U-T-117" value="" style="endArrow=none;html=1;rounded=0;exitX=0.5;exitY=0;exitDx=0;exitDy=0;entryX=0.25;entryY=1;entryDx=0;entryDy=0;" edge="1" parent="1" source="0aGzHAWhw8IwHbo-9U-T-116" target="0aGzHAWhw8IwHbo-9U-T-113">
          <mxGeometry width="50" height="50" relative="1" as="geometry">
            <mxPoint x="1685" y="760" as="sourcePoint" />
            <mxPoint x="1490" y="600" as="targetPoint" />
          </mxGeometry>
        </mxCell>
        <mxCell id="0aGzHAWhw8IwHbo-9U-T-118" value="Nationality" style="ellipse;whiteSpace=wrap;html=1;" vertex="1" parent="1">
          <mxGeometry x="1405" y="550" width="80" height="40" as="geometry" />
        </mxCell>
        <mxCell id="0aGzHAWhw8IwHbo-9U-T-119" value="" style="endArrow=none;html=1;rounded=0;exitX=0.5;exitY=0;exitDx=0;exitDy=0;entryX=0.4;entryY=0.975;entryDx=0;entryDy=0;entryPerimeter=0;" edge="1" parent="1" source="0aGzHAWhw8IwHbo-9U-T-118" target="0aGzHAWhw8IwHbo-9U-T-113">
          <mxGeometry width="50" height="50" relative="1" as="geometry">
            <mxPoint x="1775" y="760" as="sourcePoint" />
            <mxPoint x="1580" y="600" as="targetPoint" />
          </mxGeometry>
        </mxCell>
        <mxCell id="0aGzHAWhw8IwHbo-9U-T-120" value="Opened" style="ellipse;whiteSpace=wrap;html=1;" vertex="1" parent="1">
          <mxGeometry x="1495" y="560" width="80" height="40" as="geometry" />
        </mxCell>
        <mxCell id="0aGzHAWhw8IwHbo-9U-T-121" value="" style="endArrow=none;html=1;rounded=0;exitX=0.388;exitY=0.025;exitDx=0;exitDy=0;entryX=0.5;entryY=1;entryDx=0;entryDy=0;exitPerimeter=0;" edge="1" parent="1" source="0aGzHAWhw8IwHbo-9U-T-120" target="0aGzHAWhw8IwHbo-9U-T-113">
          <mxGeometry width="50" height="50" relative="1" as="geometry">
            <mxPoint x="1835" y="800" as="sourcePoint" />
            <mxPoint x="1640" y="640" as="targetPoint" />
          </mxGeometry>
        </mxCell>
        <mxCell id="0aGzHAWhw8IwHbo-9U-T-125" value="Rating" style="ellipse;whiteSpace=wrap;html=1;" vertex="1" parent="1">
          <mxGeometry x="1460" y="170" width="80" height="40" as="geometry" />
        </mxCell>
        <mxCell id="0aGzHAWhw8IwHbo-9U-T-126" value="" style="endArrow=none;html=1;rounded=0;exitX=0;exitY=0.5;exitDx=0;exitDy=0;" edge="1" parent="1" source="0aGzHAWhw8IwHbo-9U-T-125">
          <mxGeometry width="50" height="50" relative="1" as="geometry">
            <mxPoint x="1470" y="170" as="sourcePoint" />
            <mxPoint x="1330" y="220" as="targetPoint" />
          </mxGeometry>
        </mxCell>
        <mxCell id="0aGzHAWhw8IwHbo-9U-T-127" value="ID_Team_Owner" style="rhombus;whiteSpace=wrap;html=1;" vertex="1" parent="1">
          <mxGeometry x="1060" y="300" width="110" height="90" as="geometry" />
        </mxCell>
      </root>
    </mxGraphModel>
  </diagram>
</mxfile>
